<svg xmlns="http://www.w3.org/2000/svg" viewBox="0 0 1056 816" height="816" width="1056"><defs><clipPath id="a"><path d="M0 612h792V0H0z"/></clipPath><clipPath id="b"><path d="M421.2 429.7c-69.45-57.1-79.4-159.7-22.28-229.13 57.13-69.42 159.72-79.4 229.15-22.26 69.42 57.2 79.4 159.8 22.26 229.2-32.17 39.1-78.8 59.4-125.78 59.4-36.4 0-73.04-12.1-103.36-37.1m-10.5-219.4c-52 63.1-42.9 156.4 20.2 208.4 63.1 52 156.4 42.9 208.3-20.2 51.9-63.1 42.9-156.4-20.3-208.3-27.6-22.6-60.9-33.7-94-33.7-42.7 0-85.1 18.4-114.4 54"/></clipPath><linearGradient id="c" gradientTransform="rotate(-29.055 941.523 -503.952) scale(338.67717)" gradientUnits="userSpaceOnUse" x2="1"><stop offset="0" stop-color="#1f1d16"/><stop offset=".2" stop-color="#732324"/><stop offset=".68" stop-color="#ddc498"/><stop offset=".68" stop-color="#ddc498"/><stop offset=".92" stop-color="#732324"/><stop offset=".98" stop-color="#732324"/><stop offset="1" stop-color="#1f1d16"/></linearGradient><clipPath id="d"><path d="M0 612h792V0H0z"/></clipPath><linearGradient id="e" gradientTransform="matrix(23.38737 43.047 43.047 -23.38736 181.086 436.31)" gradientUnits="userSpaceOnUse" x2="1"><stop offset="0" stop-color="#1f1d16"/><stop offset=".2" stop-color="#732324"/><stop offset=".68" stop-color="#ddc498"/><stop offset=".68" stop-color="#ddc498"/><stop offset=".92" stop-color="#732324"/><stop offset=".98" stop-color="#732324"/><stop offset="1" stop-color="#1f1d16"/></linearGradient><linearGradient id="f" gradientTransform="rotate(60.005 -181.44 463.01) scale(27.82838)" gradientUnits="userSpaceOnUse" x2="1"><stop offset="0" stop-color="#865029"/><stop offset=".01" stop-color="#865029"/><stop offset=".23" stop-color="#865029"/><stop offset=".32" stop-color="#ddc498"/><stop offset=".55" stop-color="#fff"/><stop offset=".84" stop-color="#ddc498"/><stop offset=".85" stop-color="#ddc498"/><stop offset=".86" stop-color="#fff"/><stop offset=".91" stop-color="#fff"/><stop offset="1" stop-color="#865029"/></linearGradient><linearGradient id="g" gradientTransform="rotate(61.83 -130.323 463.64) scale(40.03787)" gradientUnits="userSpaceOnUse" x2="1"><stop offset="0" stop-color="#865029"/><stop offset=".01" stop-color="#865029"/><stop offset=".23" stop-color="#865029"/><stop offset=".32" stop-color="#ddc498"/><stop offset=".55" stop-color="#fff"/><stop offset=".84" stop-color="#ddc498"/><stop offset=".85" stop-color="#ddc498"/><stop offset=".86" stop-color="#fff"/><stop offset=".91" stop-color="#fff"/><stop offset="1" stop-color="#865029"/></linearGradient><linearGradient id="h" gradientTransform="rotate(-28.75 971.64 -369.28) scale(11.63085)" gradientUnits="userSpaceOnUse" x2="1"><stop offset="0" stop-color="#531f1b"/><stop offset=".01" stop-color="#531f1b"/><stop offset=".39" stop-color="#531f1b"/><stop offset=".55" stop-color="#ddc498"/><stop offset=".76" stop-color="#fff"/><stop offset=".96" stop-color="#ddc498"/><stop offset=".97" stop-color="#ddc498"/><stop offset=".98" stop-color="#865029"/><stop offset="1" stop-color="#865029"/></linearGradient><linearGradient id="i" gradientTransform="rotate(-28.75 950.49 -460.907) scale(11.6197)" gradientUnits="userSpaceOnUse" x2="1"><stop offset="0" stop-color="#531f1b"/><stop offset=".01" stop-color="#531f1b"/><stop offset=".39" stop-color="#531f1b"/><stop offset=".55" stop-color="#ddc498"/><stop offset=".76" stop-color="#fff"/><stop offset=".96" stop-color="#ddc498"/><stop offset=".97" stop-color="#ddc498"/><stop offset=".98" stop-color="#865029"/><stop offset="1" stop-color="#865029"/></linearGradient><linearGradient id="j" gradientTransform="rotate(-28.75 942.437 -520.697) scale(11.6201)" gradientUnits="userSpaceOnUse" x2="1"><stop offset="0" stop-color="#865029"/><stop offset=".01" stop-color="#865029"/><stop offset=".39" stop-color="#865029"/><stop offset=".55" stop-color="#ddc498"/><stop offset=".76" stop-color="#fff"/><stop offset=".96" stop-color="#ddc498"/><stop offset=".97" stop-color="#ddc498"/><stop offset=".98" stop-color="#865029"/><stop offset="1" stop-color="#865029"/></linearGradient><clipPath id="k"><path d="M0 612h792V0H0z"/></clipPath><clipPath id="l"><path d="M0 612h792V0H0z"/></clipPath></defs><g clip-path="url(#a)" transform="matrix(1.33333 0 0 -1.33333 0 816)"><path d="M357.5 349.9c-3.34 1.8.06 14.38 7.57 28.03 7.52 13.67 16.3 23.25 19.62 21.44 3.3-1.84-.1-14.4-7.6-28.05-7.5-13.66-16.3-23.26-19.6-21.4m-27.8 11.22c-3.3 1.84 0 14.38 7.6 28.04 7.5 13.66 16.3 23.26 19.6 21.43 3.3-1.8-.1-14.3-7.6-28s-16.3-23.2-19.6-21.4m-41.5 21.5c-3.3 1.9.1 14.4 7.6 28.1s16.3 23.3 19.6 21.4c3.3-1.8-.1-14.4-7.6-28s-16.3-23.2-19.6-21.4m55.1-8.7c-3.6.3-23.5-21.7-2.9 14.8 20.5 36.5 15 7.8 15 7.8 21.7-11.7 35.5 10.7 17-24.7-18.3-34.9-12.8.8-29.2 2.1M315 389c-18.5 9.6-36.87-16.33-16.33 20.2 20.5 36.47 5.9 14.56 28.46 2.4 21.65-11.7 35.5 10.66 17-24.7-18.24-34.97-14.6-5.4-29.2 2.1m-129 47.4c-67.9 38.2-115.8 82-106.9 97.74 8.88 15.8 71.15-2.34 139.07-40.6 67.9-38.2 115.8-82 106.9-97.8-8.9-15.8-71.2 2.4-139.1 40.65m429.2-254c-63-52-156.28-42.9-208.26 20.2-51.9 63.1-42.84 156.3 20.3 208.3 63.1 51.9 156.4 42.8 208.3-20.3 51.9-63.1 42.86-156.4-20.24-208.3m31.3 217.3C589.36 469 486.8 479 417.35 421.8S338 262.2 395.1 192.72c57.1-69.4 159.7-79.4 229.14-22.3 69.43 57.1 79.4 159.7 22.26 229.18" fill="#c8c7c7"/><path d="M419.32 421.5c66.27 54.54 164.2 45.02 218.74-21.25 54.53-66.27 45-164.2-21.26-218.74-66.27-54.5-164.2-45-218.73 21.3-54.54 66.3-45.02 164.2 21.25 218.8z" fill="none" stroke="#241a18" stroke-width="3.29"/><path d="M339.36 392.72L308.8 409.5m52.3-29.4l-12.54 5.04m-.24 5.38l-12.54 5.06m38.15-17.5l-12.54 5.04m-18.3 21.38l-30.6 16.8m52.3-29.4l-12.6 5.04m-.3 5.4l-12.6 5.04m38.1-17.5l-12.5 5.05" fill="#c0c4ca" stroke="#531f1b" stroke-width="3.29"/></g><g clip-path="url(#b)" transform="matrix(1.33333 0 0 -1.33333 0 816)"><path d="M421.2 429.7c-69.45-57.1-79.4-159.7-22.28-229.13 57.13-69.42 159.72-79.4 229.15-22.26 69.42 57.2 79.4 159.8 22.26 229.2-32.17 39.1-78.8 59.4-125.78 59.4-36.4 0-73.04-12.1-103.36-37.1m-10.5-219.4c-52 63.1-42.9 156.4 20.2 208.4 63.1 52 156.4 42.9 208.3-20.2 51.9-63.1 42.9-156.4-20.3-208.3-27.6-22.6-60.9-33.7-94-33.7-42.7 0-85.1 18.4-114.4 54" fill="url(#c)"/></g><g clip-path="url(#d)" transform="matrix(1.33333 0 0 -1.33333 0 816)"><path d="M423.1 433.3c66.27 54.53 164.2 45.03 218.74-21.25 54.52-66.28 45.02-164.2-21.26-218.74-66.26-54.5-164.2-45-218.73 21.3s-45.02 164.2 21.25 218.7z" fill="none" stroke="#241a18" stroke-width="3.29"/></g><path d="M79.92 545.7c-8.88-15.8 38.98-59.6 106.9-97.8 67.92-38.26 130.2-56.44 139.08-40.66 8.88 15.8-38.98 59.6-106.9 97.82-51.32 28.88-99.42 46.33-123.7 46.33-7.85 0-13.2-1.9-15.38-5.7" fill="url(#e)" transform="matrix(1.33333 0 0 -1.33333 0 816)"/><path d="M299.6 420.7c-13.12-23.32-10.4-21.22-1.92-19.13 4.82 1.2 11.5 2.38 18.2-1.1 14.6-7.53 10.97-37.08 29.2-2.1 11.6 22.26 10.45 21.66 2.6 21.06-4.63-.35-11.6-.7-19.63 3.64-13.32 7.16-13.7 17.72-15.97 17.72-1.58 0-4.08-5.2-12.5-20.1" fill="url(#f)" transform="matrix(1.33333 0 0 -1.33333 0 816)"/><path d="M341.17 400.33c-14.88-26.48-8.55-22.22-2.6-17.96 2.28 1.62 4.5 3.24 5.48 3.16 16.38-1.34 10.96-37.08 29.2-2.12 11.6 22.3 10.45 21.7 2.6 21.1-4.64-.3-11.6-.7-19.64 3.7 0 0 2.1 10.7-1 10.7-1.9 0-6-4.3-13.9-18.5" fill="url(#g)" transform="matrix(1.33333 0 0 -1.33333 0 816)"/><path d="M296.54 422.3c-7.5-13.67-10.9-26.23-7.58-28.06 3.32-1.82 12.1 7.78 19.62 21.42 7.52 13.67 10.9 26.22 7.6 28.05-.28.2-.6.3-.94.3-3.83 0-11.8-9.1-18.7-21.6" fill="url(#h)" transform="matrix(1.33333 0 0 -1.33333 0 816)"/><path d="M338 400.83c-7.5-13.65-10.9-26.22-7.58-28.04 3.32-1.9 12.1 7.7 19.6 21.4 7.53 13.6 10.93 26.2 7.6 28-.26.1-.57.2-.92.2-3.84 0-11.8-9.1-18.7-21.7" fill="url(#i)" transform="matrix(1.33333 0 0 -1.33333 0 816)"/><path d="M365.78 389.6c-7.52-13.67-10.92-26.23-7.6-28.06 3.33-1.8 12.1 7.78 19.62 21.43 7.52 13.65 10.9 26.2 7.6 28.03-.28.16-.6.23-.94.23-3.83 0-11.8-9.1-18.68-21.63" fill="url(#j)" transform="matrix(1.33333 0 0 -1.33333 0 816)"/><g clip-path="url(#k)" transform="matrix(1.33333 0 0 -1.33333 0 816)"><path d="M239.5 365.32l-5.42-10.87c-2.93 2.94-7.66 4.4-14.15 4.4-6.18 0-11.23-2.58-15.18-7.77-3.94-5.16-5.92-11.7-5.92-19.6 0-7.94 1.83-14.22 5.47-18.87 3.64-4.6 8.5-6.9 14.6-6.9 6.94 0 12.4 2.6 16.3 7.6l6.12-10.6c-5.37-5.8-13.2-8.7-23.55-8.7-10.35 0-18.38 3.4-24.1 10.2-5.74 6.9-8.6 16.1-8.6 27.9 0 11 3.2 20.1 9.55 27.5 6.37 7.4 14.52 11.1 24.45 11.1 8.5 0 15.32-1.7 20.43-5.2m22.95-7.9v-17.2h24.07V329h-24.07v-22.1h33.78v-11.75H249.3v74.05h46.93v-11.74zm100.22-62.3l-21.84 33.3c3.96 1.5 7.24 4.1 9.83 7.7 2.62 3.6 3.92 7.6 3.92 12 0 14.6-9.44 21.9-28.34 21.9-3.04 0-7.05-.1-12.02-.4-5-.2-7.86-.3-8.6-.3v-74.1h13.77v30.9c3.5-.2 6.3-.3 8.3-.4l19.7-30.5zm-38.84 62.9c5.87 0 10.16-.7 12.9-2.1 2.72-1.4 4.1-3.9 4.1-7.6 0-4.4-1.28-7.4-3.82-9-2.5-1.5-6.5-2.3-12-2.3-1.3 0-3.1.1-5.5.3V358c1.6.2 3 .3 4.5.3" fill="#231f20"/><path d="M414.48 202.62l-23.06 42.33" fill="#231f20" fill-rule="evenodd"/><path d="M391.42 369.3V244.94l23.06-42.33v166.7zM557 203.9L493.87 373h-6.07l-67.97-169.1h25.5l12.35 35.2h62.3l11.5-35.2zm-43.53 52.18h-49.7l25.85 73.23zm43.4-45.78l8.4 21.04c4.24-3.1 9.57-5.7 15.96-7.8 6.38-2.1 12.1-3.12 17.13-3.12 8.95 0 16.13 2.4 21.58 7.25 5.4 4.84 8.13 11 8.13 18.5 0 5.6-1.52 10.78-4.52 15.6-3.02 4.78-10.6 10.03-22.75 15.7l-13.52 6.27c-11.46 5.3-19.45 11.6-24 18.87-4.55 7.3-6.82 16.1-6.82 26.3 0 12.5 4.43 22.8 13.3 31 8.86 8.2 20.23 12.3 34.14 12.3 18.57 0 31.48-3 38.73-9.1L635.9 343c-3.05 2.28-7.7 4.46-13.96 6.55-6.26 2.1-12.03 3.16-17.38 3.16-7.77 0-13.9-2.2-18.35-6.5-4.4-4.4-6.6-10-6.6-16.9 0-4.2.8-8.1 2.4-11.6 1.6-3.4 3.8-6.4 6.7-8.7 2.9-2.3 8.7-5.6 17.5-9.8l13.7-6.5c11.4-5.4 19.5-11.8 24.1-19.3 4.6-7.4 6.9-16.9 6.9-28.5 0-12.5-5-23.1-15.1-31.8s-23.6-13-40.5-13c-14.9 0-27.6 3.5-38.1 10.5m111.5-14.2h2.3c2.5 0 4 1.3 4 3.4 0 2.3-1.6 3.3-4.1 3.3-1.1 0-1.8-.1-2.2-.2zm-2.3 8c1.2.3 2.9.4 4.4.4 2.5 0 4.1-.4 5.2-1.5.9-.7 1.4-1.9 1.4-3.3 0-2.3-1.5-3.8-3.3-4.5v-.1c1.3-.4 2.1-1.7 2.6-3.6.6-2.4 1-4.1 1.3-4.8h-2.3c-.3.6-.7 2.1-1.2 4.3-.5 2.5-1.5 3.4-3.6 3.5h-2.1V187h-2.3z" fill="#231f20"/><path d="M683.25 196.24c0-7.08-5.73-12.8-12.78-12.8-7.06 0-12.8 5.72-12.8 12.8 0 7.05 5.74 12.76 12.8 12.76 7.05 0 12.78-5.7 12.78-12.76z" fill="none" stroke="#231f20" stroke-width="2.19"/></g><g clip-path="url(#l)" transform="matrix(1.33333 0 0 -1.33333 0 816)"><path d="M299.63 103.46c-.22-.57-.65-1.6-1.5-2.63-1.25-1.44-3.2-2.7-6.06-2.7-4.63 0-8.17 3.4-8.17 9.25 0 5.95 3.84 9.1 8.3 9.1 5.45 0 6.73-4.14 7.13-5.36l-3.27-.87c-.05.33-.2 1.07-.64 1.74-.37.5-1.34 1.5-3.15 1.5-2.85 0-4.83-2.4-4.83-6.1 0-4 2.1-6.2 4.86-6.2 1.63 0 2.62.8 3.34 1.7.57.8.8 1.4.92 1.8zm11.75-.66c-.37-.5-1.2-1.67-3.22-1.67-1.97 0-3.18 1.1-3.53 3h9.18c0 1.24-.2 3.4-1.2 4.85-.2.37-1.6 2.33-4.9 2.33-3.5 0-6.1-2.3-6.1-6.5 0-4.5 3.2-6.5 6.4-6.5 2.6 0 4.5 1.1 6.1 3.2zm-6.65 3.5c.35 1.7 1.44 2.63 3.03 2.63 1.3 0 2.5-.68 2.78-2.62zm12 4.66h3v-1.46c.16.22.45.62.97.95.75.54 1.88.86 2.85.86 1.4 0 2.63-.6 3.25-1.4.77-1 .77-2.4.77-3.9v-7.3h-2.96v6.3c0 .9 0 1.6-.1 1.9-.2 1.1-1 1.7-2 1.7-.9 0-1.8-.5-2.3-1.4-.4-.9-.4-2.1-.4-3.1v-5.4h-3zm17.87-2.13v-5.6c0-1.52 0-2.2 1.4-2.2.46 0 .83.04 1.25.16v-2.6c-.9-.2-1.5-.2-2.16-.2-.7 0-2.7 0-3.3 1.5-.2.5-.2 1.3-.2 2.5v6.3h-1.8v2.1h1.8v4.3h2.9v-4.4h2.6v-2.1zm14.25-6.03c-.37-.5-1.2-1.67-3.23-1.67-1.95 0-3.17 1.1-3.52 3h9.18c-.02 1.24-.24 3.4-1.26 4.85-.25.37-1.62 2.33-4.9 2.33-3.5 0-6.17-2.3-6.17-6.5 0-4.5 3.13-6.5 6.38-6.5 2.53 0 4.52 1.1 6.05 3.2zm-6.65 3.5c.35 1.7 1.44 2.63 3.03 2.63 1.3 0 2.5-.68 2.78-2.62zm14.93 4.66v-1.77c.37.6 1.2 2.1 3.96 2v-3.1c-.7 0-1.8-.1-2.7-.8-1.3-1-1.3-2.3-1.3-4.3v-4.6h-2.9v12.4zm14.67-2.13V98.57h-2.94v10.27H367v2.12h1.86v1.4c-.03 1.75-.03 3.7 3.97 3.7.6 0 1.14-.06 1.7-.1v-2.55c-.26.1-.53.1-.96.1-.8 0-1.26-.1-1.56-.6-.1-.2-.2-.5-.2-.9v-1h2.8v-2.1zm17.1-4c-.02 4.1-2.98 6.48-6.42 6.48-3.7 0-6.3-2.7-6.3-6.4s2.56-6.6 6.43-6.6c3.8 0 6.3 2.8 6.3 6.6m-3.1.1c.1-2-1-3.9-3.1-3.9-1.8 0-3.3 1.4-3.3 4 0 2.3 1.4 3.8 3.2 3.8 2.1 0 3.3-1.7 3.3-3.7m9.1 6.1v-1.7c.4.7 1.2 2.1 4 2v-3c-.6 0-1.8-.1-2.7-.8-1.2-.9-1.2-2.2-1.2-4.3v-4.6h-3V111zm15 2.2V109h8.5v-2.8H410v-4.67h9.83v-2.96h-13.1v17.48H419v-2.92zm20.8 3V110c-.9 1.03-2.1 1.37-3.3 1.37-3.5 0-5.6-3.1-5.6-6.8 0-4.1 2.6-6.27 5.5-6.27 1.3 0 2.6.46 3.5 1.56v-1.2h3v17.5zm0-11.4c.1-2.6-1.3-3.8-2.9-3.8-2.8 0-2.9 3.7-2.9 4 0 2 1 3.8 3 3.8 1 0 1.8-.5 2.2-1.1.6-.8.7-1.9.7-2.7m18 6.3v-13H446v1.3c-.5-.5-1.7-1.5-4-1.5-2 0-2.95.8-3.4 1.4-.82 1-.82 2.2-.82 4.1v7.2h3v-7.2c0-.5 0-.9.1-1.3.3-1.1 1.2-1.6 2.3-1.6 1.25 0 2 .6 2.4 1.3.48.8.5 1.6.5 3.3v5.3zm11.9-4.4c-.2.8-1.1 2.1-2.8 2.1-1.7 0-3.1-1.4-3.1-3.8 0-2.2 1.2-3.8 3.1-3.8 1.9 0 2.6 1.4 3 2.4l2.5-1.3c-1-2.6-3.4-3.8-5.6-3.8-3.4 0-6.1 2.6-6.1 6.5 0 3.8 2.7 6.6 6.2 6.6 3.1 0 4.7-2.1 5.3-3.5zm7.7.6c0 .3 0 .7.3 1.1.3.4 1 .7 2.3.7 2.1 0 2.1-1.2 2.1-1.8-1.1-.4-1.3-.4-3.9-.9-1.1-.3-3-.7-3.9-2.4-.2-.5-.4-1.1-.4-1.7 0-2.2 1.7-3.9 4.5-3.9 1.7 0 3.1.7 3.7 1.3l.1-1h3.5c-.5.8-.5 1.1-.5 2v6.6c0 1.4 0 2.5-1.4 3.4-1.1.7-2.5.8-3.7.8-.8 0-3.8 0-5-2.1-.4-.7-.4-1.2-.5-1.9zm4.7-3.8c0-.4 0-.7-.2-1.1-.3-.8-1.4-1.4-2.9-1.4-1.2 0-2 .5-2 1.5 0 1.3 1.4 1.6 2.5 1.7 1.4.2 2 .5 2.6.8zm10 5.5v-5.6c0-1.5 0-2.2 1.4-2.2.5 0 .8 0 1.3.2V99c-.9-.2-1.5-.2-2.1-.2-.6 0-2.7 0-3.2 1.5-.2.5-.2 1.3-.2 2.5v6.3h-2v2.1h1.8v4.4h3V111h2.7v-2.12zm5.1-10.3h2.9v12h-3zm0 14.4h2.9v3h-3zM507 105c0 4.1-3 6.5-6.4 6.5-3.7 0-6.3-2.7-6.3-6.46s2.57-6.6 6.43-6.6c3.7 0 6.3 2.76 6.3 6.6m-3.16.06c.05-2.02-1.04-3.9-3.2-3.9-1.78 0-3.34 1.4-3.34 3.93 0 2.3 1.37 3.8 3.2 3.8 2.1 0 3.3-1.73 3.3-3.8m6.18 6.08h3v-1.4c.2.3.5.7 1 1 .7.6 1.9.9 2.8.9 1.5 0 2.7-.6 3.3-1.4.8-1 .8-2.3.8-3.9V99H518v6.3c0 .9 0 1.53-.1 1.9-.3 1.1-1.1 1.64-2.04 1.64-.97 0-1.86-.57-2.3-1.4-.5-.9-.5-2.17-.5-3.1v-5.4h-3zm22.1-3.8c0 .4 0 .7.3 1.1.3.4 1 .8 2.3.8 2.1 0 2.2-1.2 2.2-1.8-1.1-.3-1.3-.4-3.9-.9-1.2-.2-3.1-.6-4-2.4-.2-.5-.4-1.1-.4-1.7 0-2.1 1.7-3.8 4.5-3.8 1.7 0 3.1.7 3.7 1.3l.1-1h3.5c-.5.8-.5 1.1-.5 2v6.6c0 1.3 0 2.5-1.5 3.4-1.1.6-2.5.8-3.7.8-.8 0-3.8 0-4.9-2.1-.4-.7-.4-1.2-.5-1.8zm4.7-3.7c0-.3 0-.7-.1-1.1-.3-.7-1.4-1.4-2.9-1.4-1.2 0-2 .5-2 1.5 0 1.3 1.4 1.6 2.5 1.7 1.3.2 2 .5 2.6.8zm6.7 7.6h3v-1.4c.2.3.5.7 1 1 .8.6 1.9.9 2.9.9 1.4 0 2.6-.6 3.2-1.4.8-1 .8-2.3.8-3.9V99h-2.9v6.3c0 .9 0 1.55-.1 1.9-.2 1.1-1 1.66-2 1.66s-1.8-.55-2.2-1.4c-.5-.9-.5-2.15-.5-3.1v-5.4h-3zm22.8 5.1V110c-.9 1.03-2.1 1.37-3.3 1.37-3.5 0-5.6-3.12-5.6-6.8 0-4.1 2.6-6.28 5.5-6.28 1.3 0 2.6.4 3.5 1.5v-1.2h3v17.5zm0-11.4c.1-2.7-1.3-3.8-2.9-3.8-2.9 0-2.9 3.7-2.9 3.9 0 2 1 3.8 3 3.8 1 0 1.8-.4 2.2-1.1.6-.8.7-1.9.7-2.7m12.2-6.1h3.2v6.5h2.9l3.5-6.5h3.7l-3.9 7.1c1 .3 3.4 1.5 3.4 4.8 0 2-.8 3.4-1.9 4.3-1.5 1.3-3 1.3-5.4 1.3h-5.5zm4.7 14.6c2 0 2.8 0 3.5-.4 1.4-.7 1.4-2 1.4-2.3 0-2.5-2.4-2.7-3.1-2.7h-3.3v5.5zm20.6-10.4c-.4-.5-1.2-1.7-3.2-1.7s-3.2 1.1-3.5 3h9c0 1.3-.2 3.4-1.2 4.9-.2.4-1.6 2.4-4.9 2.4-3.5 0-6.2-2.3-6.2-6.5 0-4.5 3.1-6.5 6.4-6.5 2.5 0 4.5 1.1 6.1 3.2zm-6.6 3.5c.4 1.7 1.5 2.6 3 2.6 1.3 0 2.5-.6 2.8-2.6zm13.2-4.1c.8-.9 1.9-1.5 3.6-1.5 1.7 0 2.5.9 2.5 1.5 0 .8-.9 1-1.3 1.1-.4.1-2.4.5-2.9.6-2.9.7-3.5 2.4-3.5 3.5 0 2.1 1.9 4 5.3 4 1.9 0 3.3-.6 4.1-1.2.6-.4 1-.8 1.3-1.1l-2.1-2c-.3.7-1.2 1.9-3.3 1.9-1.4 0-2-.6-2-1.3 0-.9.9-1.1 2.5-1.4 2.6-.5 3.3-.6 4.1-1.2.8-.6 1.2-1.6 1.2-2.6 0-1.9-1.7-4.2-5.5-4.2-2.2 0-4.4.7-6 2.2zm21.6.6c-.3-.5-1.2-1.6-3.2-1.6-1.9 0-3.1 1.1-3.5 3h9.1c0 1.3-.2 3.4-1.2 4.9-.2.4-1.6 2.3-4.9 2.3-3.5 0-6.1-2.3-6.1-6.5 0-4.5 3.1-6.5 6.3-6.5 2.6 0 4.5 1.1 6.1 3.2zm-6.6 3.5c.4 1.7 1.5 2.7 3.1 2.7 1.3 0 2.5-.7 2.8-2.6zm14.7.9c0 .4 0 .7.3 1.1.3.4 1 .8 2.3.8 2.1 0 2.1-1.2 2.1-1.9-1.1-.3-1.3-.4-3.9-.9-1.1-.2-3.1-.6-3.9-2.4-.2-.5-.4-1.1-.4-1.7 0-2.1 1.7-3.8 4.5-3.8 1.7 0 3.1.7 3.7 1.3 0-.1 0-.6.1-.9h3.5c-.5.7-.5 1.1-.5 2v6.6c0 1.4 0 2.5-1.5 3.4-1.1.7-2.5.8-3.7.8-.8 0-3.7 0-4.9-2.1-.4-.7-.5-1.3-.5-1.9zm4.7-3.7c0-.3 0-.7-.2-1.1-.3-.7-1.4-1.4-2.9-1.4-1.2 0-2 .5-2 1.5 0 1.3 1.4 1.6 2.5 1.7 1.4.2 2 .4 2.6.7zm9.6 7.6v-1.7c.4.6 1.2 2.1 4 2v-3c-.6 0-1.7 0-2.7-.7-1.2-1-1.3-2.2-1.3-4.3V99H651v12zM669 107c-.2.8-1.1 2.1-2.8 2.1-1.7 0-3.05-1.34-3.05-3.8 0-2.2 1.1-3.84 3.1-3.84 1.83 0 2.6 1.4 2.9 2.4l2.55-1.3c-.95-2.7-3.4-3.9-5.56-3.9-3.45 0-6.13 2.64-6.13 6.53 0 3.8 2.7 6.5 6.3 6.5 3.1 0 4.7-2.1 5.4-3.5zm8 9.5V110c.9.96 2.2 1.65 3.9 1.65 1.58 0 2.77-.6 3.4-1.34 1-1.1 1.08-2.3 1.08-3.7v-7.7h-3v6.8c-.03 1.1-.03 1.4-.2 1.8-.1.2-.5 1.3-2.14 1.3-1.9 0-2.8-1.5-3-2.2-.1-.4-.1-.6-.1-2v-5.7h-2.96v17.5zM250 68.27h-3v12.4h3zm0 14.34h-3v3h3zm3.8-2h3V79c.14.2.43.6.95.94.76.55 1.9.88 2.86.88 1.4 0 2.7-.65 3.3-1.5.8-1.03.8-2.37.8-3.96v-7.3h-2.9v6.3c0 .93 0 1.55-.1 1.9-.2 1.1-1 1.66-2 1.66s-1.8-.57-2.2-1.4c-.5-.9-.5-2.17-.5-3.1v-5.4h-3zm23.04-12.3h-3.2v17.5h3.2zm4.2 12.4h3v-1.5c.16.3.45.7.97 1 .8.5 1.9.8 2.9.8 1.4 0 2.7-.6 3.3-1.5.8-1 .8-2.4.8-4v-7.3h-3v6.3c0 1 0 1.6-.1 1.9-.2 1.1-1 1.7-2 1.7-.9 0-1.8-.6-2.3-1.4-.5-.9-.5-2.2-.5-3.1v-5.4h-3zm17.9-2.1V68.1H296v10.3h-2v2.1h1.8v1.4c0 1.76 0 3.7 4 3.7.6 0 1.13-.05 1.7-.1v-2.53c-.27.05-.5.07-.96.07-.8 0-1.26-.17-1.56-.6-.1-.2-.2-.55-.2-.92v-1h2.7V78.4zm17.1-4c-.02 4.1-3 6.5-6.42 6.5-3.7 0-6.3-2.7-6.3-6.5s2.6-6.6 6.5-6.6c3.8 0 6.3 2.8 6.3 6.7m-3.1 0c.1-2-1-3.9-3.1-3.9-1.8 0-3.3 1.4-3.3 4 0 2.3 1.36 3.8 3.2 3.8 2.1 0 3.28-1.7 3.3-3.8m9.07 6.1V79c.4.67 1.2 2.1 4 2.06v-3.1c-.7 0-1.8-.04-2.7-.74-1.3-1-1.3-2.24-1.3-4.3v-4.6h-3v12.4zm6.5 0h2.9v-1.4c1 1.3 2.7 1.8 3.9 1.8s2.6-.4 3.5-1.9c.5.7 1.7 1.9 3.9 1.9 1.2 0 2.4-.3 3.2-1.2 1-1.1.9-2.4.9-3.7v-7.8h-3V75c0 1.16.2 3.12-2.1 3.12-.9 0-1.7-.55-2.1-1.2-.6-.9-.7-1.9-.7-2.96v-5.8h-3V75c0 .9 0 1.23-.1 1.6-.2.8-.9 1.46-1.9 1.46-.9 0-1.8-.53-2.3-1.45-.5-.9-.5-2.1-.5-3.3v-5.2h-3zm24.7-4c0 .4 0 .7.3 1.1.3.4.9.8 2.2.8 2 0 2.1-1.2 2.1-1.9-1.1-.3-1.3-.4-3.9-.9-1.2-.2-3.1-.6-4-2.4-.3-.5-.4-1-.4-1.7 0-2.1 1.7-3.8 4.5-3.8 1.7 0 3 .7 3.6 1.3 0-.1.1-.6.1-.9h3.5c-.6.7-.6 1.1-.6 2V77c0 1.3-.1 2.5-1.5 3.4-1.1.6-2.6.8-3.8.8-.8 0-3.8 0-5-2.2-.4-.7-.5-1.2-.5-1.87zm4.6-3.7c0-.4 0-.7-.2-1.1-.3-.7-1.4-1.4-2.9-1.4-1.2 0-2 .5-2 1.5 0 1.4 1.4 1.6 2.5 1.7 1.3.3 2 .5 2.6.8zm10 5.5V73c0-1.6 0-2.2 1.4-2.2.5 0 .9 0 1.3.1v-2.5c-.9-.17-1.5-.2-2.1-.2-.6 0-2.7 0-3.3 1.5-.2.5-.2 1.3-.2 2.53v6.3h-2v2.16h1.8V85h3v-4.4h2.6v-2.1zm5.1-10.3h3v12.4h-3zm0 14.3h3v3h-3zm18.9-8.1c0 4.1-3 6.5-6.4 6.5-3.7 0-6.3-2.7-6.3-6.5s2.6-6.6 6.4-6.6c3.7 0 6.3 2.7 6.3 6.6m-3.2 0c.1-2-1-3.9-3.2-3.9-1.8 0-3.4 1.4-3.4 3.9 0 2.2 1.3 3.7 3.2 3.7 2.1 0 3.3-1.7 3.3-3.8m6.1 6.1h3V79c.1.22.4.62 1 .95.7.54 1.9.87 2.8.87 1.4 0 2.6-.65 3.2-1.5.8-1.03.8-2.37.8-3.96V68.1h-3v6.32c0 .92 0 1.54-.1 1.9-.3 1.08-1.1 1.65-2 1.65s-1.8-.6-2.2-1.4c-.5-.93-.5-2.2-.5-3.1v-5.4h-3zm30-12.3h3.5l-6 17.5h-3.8l-6-17.5h3.5l1 3.4h6.6zm-6.7 6.3l2.4 8.1 2.4-8.1zm13.7-2.7c.7-.9 1.9-1.6 3.6-1.6 1.7 0 2.4.8 2.4 1.4 0 .8-.9 1-1.3 1.1-.5.1-2.5.5-2.9.6-3 .7-3.5 2.4-3.5 3.5 0 2.1 1.9 4.1 5.3 4.1 1.9 0 3.2-.6 4.1-1.2.6-.4 1-.8 1.2-1.1l-2.1-1.9c-.4.7-1.2 1.9-3.4 1.9-1.4 0-2-.6-2-1.3 0-.9 1-1.1 2.5-1.4 2.6-.5 3.3-.6 4.1-1.2.8-.6 1.3-1.6 1.3-2.6 0-1.9-1.7-4.2-5.5-4.2-2.2 0-4.4.7-5.9 2.2zm13.5 0c.7-.9 1.8-1.6 3.5-1.6s2.5.8 2.5 1.4c0 .8-.9 1-1.3 1.1-.4.1-2.4.5-2.9.6-2.9.7-3.5 2.4-3.5 3.5 0 2.1 1.9 4.1 5.3 4.1 1.9 0 3.3-.6 4.1-1.2.6-.4 1-.8 1.3-1.1l-2.1-1.9c-.3.7-1.1 1.9-3.3 1.9-1.4 0-2-.6-2-1.3 0-.9.9-1.1 2.5-1.4 2.6-.5 3.3-.6 4.1-1.2.8-.6 1.3-1.6 1.3-2.6 0-1.9-1.8-4.2-5.6-4.2-2.2 0-4.4.7-6 2.2zm23.4 8.7V68.1h-3v1.26c-.6-.5-1.8-1.6-4-1.6-2.1 0-3 .8-3.5 1.4-.9 1-.9 2.2-.9 4.1v7.1h3v-7.1c0-.5 0-.9.1-1.24.3-1.1 1.2-1.56 2.3-1.56 1.3 0 2 .7 2.4 1.3.5.86.5 1.65.5 3.4v5.24zm6.7 0v-1.7c.4.6 1.2 2.1 3.9 2v-3c-.6 0-1.8 0-2.7-.7-1.2-.9-1.3-2.2-1.3-4.2v-4.6h-2.8v12.4zm9.2-3.8c0 .4-.1.7.3 1.1.3.4.9.8 2.2.8 2 0 2.1-1.2 2.1-1.9-1.1-.3-1.3-.4-3.9-.9-1.2-.2-3.1-.6-4-2.4-.3-.5-.4-1-.4-1.7 0-2.1 1.7-3.8 4.5-3.8 1.7 0 3 .7 3.7 1.3v-1h3.5c-.6.8-.6 1.1-.6 2v6.6c0 1.4 0 2.5-1.5 3.4-1.1.7-2.6.8-3.8.8-.8 0-3.8 0-5-2.1-.4-.7-.5-1.2-.5-1.8zm4.6-3.7c0-.4 0-.7-.2-1.1-.4-.7-1.4-1.4-2.9-1.4-1.2 0-2 .5-2 1.5 0 1.4 1.4 1.6 2.4 1.7 1.3.3 2 .5 2.6.8zm6.7 7.6h3V79c.1.22.4.62.9.95.7.54 1.9.87 2.8.87 1.4 0 2.6-.65 3.2-1.5.8-1.03.8-2.37.8-3.96V68.1h-3v6.32c0 .92 0 1.54-.1 1.9-.3 1.08-1.1 1.65-2 1.65s-1.9-.6-2.3-1.4c-.5-.93-.5-2.2-.5-3.1v-5.4h-3zm22.4-4.4c-.3.8-1.1 2.1-2.8 2.1-1.7 0-3.1-1.3-3.1-3.8 0-2.2 1.1-3.9 3.1-3.9 1.8 0 2.6 1.5 2.9 2.5l2.5-1.3c-1-2.7-3.4-3.8-5.6-3.8-3.5 0-6.2 2.7-6.2 6.5s2.7 6.6 6.2 6.6c3.1 0 4.7-2.1 5.3-3.5zm14.2-3.7c-.4-.5-1.2-1.6-3.2-1.6s-3.2 1.1-3.5 3h9.1c0 1.3-.3 3.4-1.3 4.9-.3.4-1.6 2.3-4.9 2.3-3.5 0-6.2-2.4-6.2-6.6 0-4.5 3.1-6.6 6.4-6.6 2.5 0 4.5 1.1 6 3.1zm-6.7 3.5c.3 1.7 1.4 2.7 3 2.7 1.3 0 2.5-.6 2.8-2.6zm19.5.9c0 .4 0 .7.3 1.1.3.4 1 .8 2.2.8 2.1 0 2.1-1.3 2.1-1.9-1.1-.3-1.3-.4-3.9-.9-1.2-.2-3.1-.6-4-2.4-.3-.5-.4-1-.4-1.7 0-2.1 1.7-3.8 4.5-3.8 1.7 0 3 .7 3.7 1.2v-1h3.5c-.6.7-.6 1-.6 2v6.5c0 1.3 0 2.5-1.5 3.4-1.1.6-2.6.8-3.8.8-.8 0-3.8 0-5-2.2-.4-.7-.5-1.2-.5-1.8zm4.6-3.7c0-.4 0-.8-.2-1.1-.3-.8-1.4-1.5-2.9-1.5-1.2 0-2 .5-2 1.4 0 1.3 1.4 1.5 2.5 1.7 1.3.2 2 .4 2.6.7zm6.7 7.6h3V79c.1.22.4.62 1 .95.7.54 1.9.87 2.8.87 1.4 0 2.6-.65 3.2-1.5.8-1.03.8-2.37.8-3.96V68.1H565v6.32c0 .92 0 1.54-.1 1.9-.27 1.08-1.06 1.65-2.03 1.65s-1.86-.6-2.28-1.4c-.5-.93-.5-2.2-.5-3.1v-5.4h-3zm23 5.1v-6.1c-1 1.1-2.1 1.4-3.3 1.4-3.6 0-5.7-3.1-5.7-6.8 0-4.1 2.6-6.2 5.5-6.2 1.3 0 2.5.5 3.5 1.6v-1.2h2.9V86zm0-11.3c0-2.7-1.4-3.8-2.9-3.8-2.9 0-3 3.7-3 3.9 0 2 .9 3.8 2.9 3.8 1 0 1.7-.5 2.2-1.1.5-.8.6-1.9.6-2.7m13.43-.9c.5-.6 1.8-2.6 5.5-2.6.6 0 1.22.1 1.9.3 1.2.5 1.43 1.4 1.43 2 0 1.1-.78 1.5-1.3 1.8-.4.1-.46.14-2.05.5l-2.1.4c-1.1.3-1.7.4-2.2.6-.8.3-2.93 1.3-2.93 4.2 0 3.3 2.8 5.4 6.93 5.4 3.8 0 5.8-1.9 7-3.6l-2.6-2c-.6.8-1.8 2.6-4.6 2.6-1.8 0-3.3-.8-3.3-2.2 0-1.5 1.6-1.8 3.2-2.1l1.8-.4c2.3-.5 5.7-1.5 5.7-5.2 0-4-3.8-5.6-7.5-5.6-1 0-2.1.1-3.2.4-1.2.3-3.3 1.2-4.6 3.3zm24.6-.9c-.36-.5-1.2-1.7-3.2-1.7-1.95 0-3.17 1.1-3.5 3h9.2c-.06 1.3-.28 3.4-1.3 4.9-.2.4-1.6 2.4-4.9 2.4-3.46 0-6.1-2.3-6.1-6.5 0-4.5 3.1-6.5 6.3-6.5 2.5 0 4.5 1.1 6 3.1zm-6.6 3.5c.3 1.7 1.4 2.6 3 2.6 1.3 0 2.5-.7 2.8-2.6zm20 .3c-.27.8-1.1 2.1-2.8 2.1-1.7 0-3.1-1.3-3.1-3.8 0-2.3 1.15-3.9 3.1-3.9 1.9 0 2.6 1.4 3 2.4l2.5-1.4c-.9-2.7-3.4-3.9-5.5-3.9-3.4 0-6.1 2.6-6.1 6.5 0 3.7 2.7 6.5 6.3 6.5 3.2 0 4.7-2.1 5.4-3.5zm16.2 4.4v-13h-2.97v1.3c-.5-.5-1.7-1.6-4-1.6-2 0-3 .8-3.4 1.4-.8 1-.8 2.2-.8 4.1v7.1h3v-7.1c0-.5 0-.9.1-1.3.3-1.1 1.2-1.6 2.3-1.6 1.2 0 2 .7 2.4 1.3.4.8.4 1.6.43 3.4v5.2zm6.74 0v-2c.36.7 1.2 2.1 3.95 2.1V78c-.6-.05-1.74-.07-2.65-.77-1.2-1-1.3-2.25-1.3-4.3v-4.5H651v12.4zm6.5-12.3h2.95V81h-2.9zm0 14.37h2.95V86h-2.9zm10.1-4.1v-6c0-1.5 0-2.2 1.4-2.2.45 0 .82.05 1.24.17v-2.5c-.9-.16-1.5-.2-2.2-.2-.6 0-2.7 0-3.3 1.5-.2.5-.2 1.3-.2 2.54v6.3H666v2.1h1.8V85h2.9v-4.4h2.6v-2.1zm15.2 2l-3.07-11-.7-2.32c-.87-2.6-1.8-3.5-4.1-3.5-.94 0-1.4.1-1.75.2V67h.8c.2 0 .83 0 1.3.3.4.3.7.8.7 1.1l-4.5 12.7h3.2l2.8-9.2 2.4 9.3z" fill="#231f20"/></g></svg>